/* XPM */
static char *c4adb702b2e34677dee9570ac9fbe81dFeKnPSJHaVmQV8Oa[] = {
/* columns rows colors chars-per-pixel */
"32 32 5 1 ",
"  c None",
". c #161D1D",
"X c #78B7CD",
"o c #7FC2D9",
"O c #83C7DF",
/* pixels */
"                                ",
"                                ",
"           OOOOOOO              ",
"           OOOOOOO              ",
"           OOOOOOO              ",
"           ....OOO              ",
"           ....OOO              ",
"           ....OOO              ",
"           OOOOOOO              ",
"           OOOOOOO              ",
"           OOOOOOO              ",
"           ....OOO              ",
"           ....OOO              ",
"           ....OOO              ",
"             OOOOOOO            ",
"             OOOOOOO            ",
"           OOOOOOOOOOO          ",
"           OOO.....OOO          ",
"         OOOOO.....XoOOO        ",
"         OOO..     ..OOO        ",
"         OOO..     ..OOO        ",
"         OOO         OOO        ",
"         OOO         OOO        ",
"         OOO         OOO        ",
"         OOOOO     OOOOO        ",
"         ..OOO     OOO..        ",
"         ..OOOOOOOOOOO..        ",
"           ..OOOOOOO..          ",
"           ..OOOOOOO..          ",
"             .......            ",
"             .......            ",
"                                "
};
