/* XPM */
static char *_8a14dc061ed45b589af10c797bb513bPgWmoscDVXGwn4O5[] = {
/* columns rows colors chars-per-pixel */
"32 32 181 2 ",
"   c None",
".  c #691D26",
"X  c #6A1D26",
"o  c #681F26",
"O  c #6B1E26",
"+  c #6A1F26",
"@  c #592327",
"#  c #672026",
"$  c #585304",
"%  c #715C1A",
"&  c #736A6B",
"*  c #737272",
"=  c gray46",
"-  c #B00F1D",
";  c #B80F1D",
":  c #BD0E1D",
">  c #B0101D",
",  c #B1101E",
"<  c #9B2C1F",
"1  c #B33E1A",
"2  c #9A1421",
"3  c #9C1521",
"4  c #9A2521",
"5  c #A32C36",
"6  c #BB2330",
"7  c #BC2431",
"8  c #CB0A1A",
"9  c #CC0B1C",
"0  c #D80719",
"q  c #DD0518",
"w  c #DD0719",
"e  c #DF0719",
"r  c #DE071A",
"t  c #D4091A",
"y  c #D4081B",
"u  c #DB0819",
"i  c #D8091A",
"p  c #DA081A",
"a  c #DB081A",
"s  c #DA091A",
"d  c #E00619",
"f  c #E10619",
"g  c #E0071A",
"h  c #E60518",
"j  c #EA0418",
"k  c #EE071B",
"l  c #E30E18",
"z  c #F50014",
"x  c #F40015",
"c  c #F50015",
"v  c #F70117",
"b  c #F80015",
"n  c #F90016",
"m  c #FA0116",
"M  c #FF0014",
"N  c #FF0015",
"B  c #FE0016",
"V  c #FF0016",
"C  c #FE0516",
"Z  c #FF0516",
"A  c #F70914",
"S  c #FA0A16",
"D  c #EA1917",
"F  c #FF1414",
"G  c #DA2517",
"H  c #FF3911",
"J  c #FF3A11",
"K  c #C01221",
"L  c #C51423",
"P  c #C91424",
"I  c #D21828",
"U  c #D0202F",
"Y  c #C22533",
"T  c #C82533",
"R  c #C72836",
"E  c #C72B39",
"W  c #C82A38",
"Q  c #CF2E3B",
"!  c #D22B3A",
"~  c #D12F3D",
"^  c #A74B1A",
"/  c #AB4E19",
"(  c #FF490F",
")  c #FF4910",
"_  c #BD3642",
"`  c #D23644",
"'  c #96444B",
"]  c #BF414C",
"[  c #A1656A",
"{  c #C05E67",
"}  c #C66F76",
"|  c #CA727A",
" . c #C8767D",
".. c #909001",
"X. c #9D9406",
"o. c #A09F01",
"O. c #B39F0D",
"+. c #A39311",
"@. c #A6A601",
"#. c #A3A104",
"$. c #ACAC01",
"%. c #AFAE01",
"&. c #B0AD05",
"*. c #BDA40D",
"=. c #B6B601",
"-. c #C2C101",
";. c #C6C601",
":. c #D1D101",
">. c #D9DA01",
",. c #F7F801",
"<. c #8E8E8E",
"1. c #909191",
"2. c #929191",
"3. c #929292",
"4. c #959595",
"5. c #969898",
"6. c gray61",
"7. c #9C9D9D",
"8. c #9F9F9F",
"9. c #AD8285",
"0. c #A19C9D",
"q. c #A2A2A2",
"w. c gray65",
"e. c #A8A4A4",
"r. c #A9A5A5",
"t. c #AAA5A5",
"y. c #ACA7A7",
"u. c #A8A9A9",
"i. c #AAAAAA",
"p. c #ADAEAD",
"a. c #AEAEAE",
"s. c #AFAFAF",
"d. c #B0ACAC",
"f. c #B1AFAF",
"g. c #AFB1B1",
"h. c #B1B3B3",
"j. c #B7B7B7",
"k. c #BBB7B7",
"l. c #BAB9B9",
"z. c #BBBBBB",
"x. c #BCBEBD",
"c. c #BDBEBD",
"v. c gray",
"b. c #C8BEBE",
"n. c #BFC0C0",
"m. c gray76",
"M. c #C3C3C3",
"N. c gray77",
"B. c #C5C6C5",
"V. c #C5C6C6",
"C. c #C7C8C8",
"Z. c #C8C8C8",
"A. c gray79",
"S. c #C9CAC9",
"D. c #CACBCB",
"F. c #CDCDCD",
"G. c #CECECE",
"H. c #D4CDCE",
"J. c #D0D0D0",
"K. c #D0D1D0",
"L. c gray82",
"P. c #D1D2D1",
"I. c #D3D4D3",
"U. c #D4D5D5",
"Y. c #D5D6D6",
"T. c gray84",
"R. c #D8D7D7",
"E. c #D9DEDD",
"W. c #DDDDDD",
"Q. c gray88",
"!. c #E1E1E1",
"~. c #E2E2E2",
"^. c #E2E3E3",
"/. c #E4E6E6",
"(. c #F3F4F4",
"). c #F4F4F4",
"_. c gray98",
"`. c #FDFDFD",
"'. c #FEFEFE",
"]. c #FEFFFF",
"[. c white",
/* pixels */
"                                                                ",
"                              $                                 ",
"                              X.                                ",
"                              @.                                ",
"                              -...                              ",
"                            o.>.                                ",
"                            %.:.%.                              ",
"                            =.,.;.                              ",
"                            #.+.&.                              ",
"                            O.1 *.%                             ",
"                        X 4 / l / <                             ",
"                      : 3 9 w b a t 2 ;                         ",
"                      t j v B B B S D a                         ",
"                      d B B B B Z J ( G X                       ",
"                      d B B B B Z J ) G X                       ",
"                      w v v b b b S F t X                       ",
"                      5 }  ._ ] | { L > @                       ",
"                      ' H.W.[ 9./.b.6 8 #                       ",
"                      L ! ~ I U ` Q k a #                       ",
"                      d M q h B M M B a O                       ",
"                      d B t w M B M B u #                       ",
"                      > K R 7 W Y R T >                         ",
"                        & s.0.k.e.e.t.                          ",
"                        n.H.h.f.q.C.D.c.                        ",
"                        F.^.I.4.u.(.L.I.3.                      ",
"                      R.S.^.`.V.F.[.F.K.5.                      ",
"                      u.V.!.[.T.T.[.S.L.0.                      ",
"                      7.s.Q._.c.J.[.N.l.3.                      ",
"                        * T.).N.x.E.h.=                         ",
"                          3.s.3.7.t.                            ",
"                          u.w.    f.l.                          ",
"                        <.F.l.    S.m.                          "
};
