/* XPM */
static char *ebd6de09251c451e88e7ef376b904b4a94NFVKNTNREgJQ4y[] = {
/* columns rows colors chars-per-pixel */
"32 32 11 1 ",
"  c None",
". c #141B1B",
"X c #4E484A",
"o c #5F7160",
"O c #8D977F",
"+ c #548789",
"@ c #79B8CE",
"# c #848888",
"$ c #A2AB97",
"% c #FCE2CA",
"& c white",
/* pixels */
"                                ",
"                                ",
"                                ",
"                                ",
"           @@@@@@@@@@           ",
"           @@@@@@@@@@#          ",
"         @@@@@@@@@@@@@          ",
"         @@@@@@@@@@@@@          ",
"        @@@&&&@@@@@@@@@@        ",
"        @@@&&&@@@@@@@@@@        ",
"        @@@&&&@@@@@@@@@@        ",
"        @@@@@@@@@@@@@+@@        ",
"        @@@@@@@@@@@@@+@@        ",
"        @@@@@@@@@@@@@+@@        ",
"        @@@@@@@@@@@+++@@        ",
"        @@@@@@@@@@@+++@@        ",
"    $Ooo.@@@+++++++++@..Xoo     ",
"    OOoooXX@@@+++++++XooXoo     ",
"    OOoooXX@@@+++++++XooXoo     ",
"    OOoooooo+++++++oooooXoo     ",
"    OOoooooo+++++++oooooXoo     ",
"    OOOOooooooooooooooXXooo     ",
"    %%OOooooooooooooooooooo     ",
"    %%OOooooooooooooooooooo     ",
"    ooOOOooooooooooooooooXX     ",
"    oooooooooooooooooooooXX     ",
"    oooooooooooooooooooooXX     ",
"    oooooooooooooooooooooXX     ",
"    oooooooooooooooooooooXX     ",
"                                ",
"                                ",
"                                "
};
