/* XPM */
static char *_d0c9c6b156241c5b00008d2b40a712bO5bPSkDEsCtNNZpy[] = {
/* columns rows colors chars-per-pixel */
"32 32 45 1 ",
"  c #B0BC51",
". c #B0BB51",
"X c #AFBA50",
"o c #AAAB47",
"O c #AAAA47",
"+ c #AFB94F",
"@ c #ACAF49",
"# c #AEB64D",
"$ c #ABAC47",
"% c #ABAD48",
"& c #AFB84F",
"* c #ABAE48",
"= c #ACB14A",
"- c #ACB14B",
"; c #AAA945",
": c #ADB34C",
"> c #ABAE49",
", c #A8A543",
"< c #AEB74E",
"1 c #AFB84E",
"2 c #AAAA46",
"3 c #ADB24B",
"4 c #AEB54D",
"5 c #A9A745",
"6 c #ACB04A",
"7 c #A8A342",
"8 c #A7A241",
"9 c #AEB64E",
"0 c #A8A443",
"q c #A7A041",
"w c #A7A141",
"e c #B0BB50",
"r c #A9A744",
"t c #ADB44C",
"y c #ADB44D",
"u c #AAA946",
"i c #AFB950",
"p c #A9A644",
"a c #A7A242",
"s c #A9A845",
"d c #ABAC48",
"f c #B0BD51",
"g c #ADB34B",
"h c #ACAF4A",
"j c white",
/* pixels */
"           ..                  X",
"          XoO+           @#     ",
"      +$%&*=-%+         .;:-#  :",
"     +>@@*=X@,<          :123  4",
"     +>3<5&678*X           3<   ",
"      +@95#0qw2+               <",
"        +%1o;2+                3",
"X#1 e9<     .       &X          ",
"3ro1t52<          +X2:+e        ",
"$<t,2&toX        e2y$:2#       e",
"3%t5&#u#         eu4Xiu4       6",
"X&42<paoX         &X  &e       @",
"  e+97p9                       X",
"    e#<                         ",
"                                ",
"                                ",
"                                ",
"                                ",
"       e:3:e               43+  ",
"      e:us2t.          9tX<d;6+ ",
"     etoXetpt.        <o53d4&u-f",
"     <o+ #,w5+       e$3+2g+2w@e",
"     .X +s7p9         +o4u:dww03",
"  eeee  .&&&           +X2:o8a@X",
" #s55oX           .   .  &X&#9X ",
"4dttt-%e        .%u< @u<        ",
"+66 fX=>e      e@63%oh3%<       ",
"f406. <rX      .3>&;o&-h+       ",
"&oq5. +=e        =<ut:0d+       ",
"9os,:              69uqu1       ",
"  <u%e               @u<        ",
"   .                  .         "
};
