/* XPM */
static char *d24d3a8582e34435b33410692cfebee7JmLKkbbC8vE8u4oT[] = {
/* columns rows colors chars-per-pixel */
"32 32 8 1 ",
"  c None",
". c #141B1B",
"X c #4E484A",
"o c #4A7F4B",
"O c #E46D3A",
"+ c #965746",
"@ c #74A334",
"# c #ADBC3A",
/* pixels */
"                                ",
"                                ",
"          ...........           ",
"       ...@@@@@@@@@@@...        ",
"     ..#################...     ",
"   ..######################..   ",
"  .##########################.  ",
" .@##########################@. ",
" .@@######################@@#@. ",
" .##########################@@. ",
".@############################@.",
".@############################@.",
"..@##########################@..",
".@############################@.",
".@@###########################@.",
".@@###########################@.",
".@@@#####################@###@@.",
" .@@####@#################@#@@. ",
".oo@@##@###@####@#########@@@@@.",
".ooo@@@@###@####@####@@##@@@@@@.",
" ..oo@@@@@@@@##@@@##@@@@@@@o@.. ",
"  ..oo@@@@@@@@@@@@@@@@@@@@oo..  ",
"  .oooo@@o@@@@@o@@@o@@@@ooooo.  ",
"  .oooooooo@@ooo@@@oo@@oooooo.  ",
"   ..oooXoooooooooooooooooo..   ",
"   .++XXXXXXXXooooX+ooXXXXXX.   ",
"   .+++OOX++++++X+X++++XXXX+.   ",
"  .OO+OOOOOOOOOO+O+O+++X+X++O.  ",
"  .OOOOOOOOOOOOO+O+O+++X+++++.  ",
"   OOOOOOOOOOOOO+OOO+++++++++   ",
"      OOOOOOOOOOOOO+++++++      ",
"                                "
};
